<mxfile host="app.diagrams.net" modified="2024-01-25T05:50:04.610Z" agent="Mozilla/5.0 (Macintosh; Intel Mac OS X 10_15_7) AppleWebKit/537.36 (KHTML, like Gecko) Chrome/120.0.0.0 Safari/537.36" version="23.0.1" etag="mn7He-5Ljw5fr2BpJ72G" type="github">
  <diagram name="Page-1" id="R0vQjT5al2P0gwGYPVFk">
    <mxGraphModel>
      <root>
        <mxCell id="0" />
        <mxCell id="1" parent="0" />
      </root>
    </mxGraphModel>
  </diagram>
</mxfile>
